<?xml version="1.0" encoding="UTF-8"?>
<svg id="Layer_2" data-name="Layer 2" xmlns="http://www.w3.org/2000/svg" viewBox="0 0 522.49 204">
  <defs>
    <style>
      .cls-1 {
        fill: #fff;
      }

      .cls-2 {
        letter-spacing: -.1em;
      }

      .cls-3 {
        letter-spacing: -.03em;
      }

      .cls-4 {
        font-family: ArchivoRoman-Bold, Archivo;
        font-size: 117.9px;
        font-variation-settings: 'wght' 700, 'wdth' 100;
        font-weight: 700;
      }
    </style>
  </defs>
  <g id="Layer_1-2" data-name="Layer 1">
    <g>
      <rect class="cls-1" x="203" width="319.49" height="204"/>
      <rect class="cls-1" width="202.81" height="204"/>
      <g>
        <polygon points="63.01 111 91.48 111 77.18 77.92 63.01 111"/>
        <path d="m134.39,74h-21.39v22h20.33c9.33,0,15.67-3.23,15.67-10.79v-.24c0-6.5-5.28-10.98-14.61-10.98Z"/>
        <path d="m0,0v204h203V0H0Zm168,121.6c0,14.77-12.11,22.4-30.54,22.4h-32.28l-5.41-12.9-2.98-7.1h-39.1l-8.51,20h-14.89l36.39-83h13.47l30.76,70h22.67c9.92,0,16.42-3.49,16.42-10.94v-.24c0-6.97-6.02-11.83-17.48-11.83h-22.99l-14.53-32.12v-14.88h37.28c9.45,0,16.67,2.89,21.39,7.62,3.66,3.66,5.33,8.44,5.33,14v.24c0,9.92-5.48,15.24-11.62,18.43,9.69,3.31,16.62,8.86,16.62,20.08v.24h0Z"/>
      </g>
      <text class="cls-4" transform="translate(230.85 142.79)"><tspan class="cls-2" x="0" y="0">T</tspan><tspan class="cls-3" x="63.19" y="0">ech</tspan></text>
    </g>
  </g>
</svg>